<svg height="974" width="720" xmlns="http://www.w3.org/2000/svg">
<rect height="974" fill="#555" width="720"></rect>
<text fill="#7f7" font-family="Courier New" font-size="12" xml:space="preserve">
<tspan x="10" y="26">7 megabytes installed</tspan>
<tspan x="10" y="42"></tspan>
<tspan x="10" y="58">node_modules</tspan>
<tspan x="10" y="74">└─┬ inline-css@2.2.2 </tspan>
<tspan x="10" y="90">  ├── bluebird@2.11.0 </tspan>
<tspan x="10" y="106">  ├─┬ cheerio@0.19.0 </tspan>
<tspan x="10" y="122">  │ ├─┬ css-select@1.0.0 </tspan>
<tspan x="10" y="138">  │ │ ├── boolbase@1.0.0 </tspan>
<tspan x="10" y="154">  │ │ ├── css-what@1.0.0 </tspan>
<tspan x="10" y="170">  │ │ ├── domutils@1.4.3 </tspan>
<tspan x="10" y="186">  │ │ └── nth-check@1.0.1 </tspan>
<tspan x="10" y="202">  │ ├─┬ dom-serializer@0.1.0 </tspan>
<tspan x="10" y="218">  │ │ └── domelementtype@1.1.3 </tspan>
<tspan x="10" y="234">  │ ├── entities@1.1.1 </tspan>
<tspan x="10" y="250">  │ ├─┬ htmlparser2@3.8.3 </tspan>
<tspan x="10" y="266">  │ │ ├── domelementtype@1.3.0 </tspan>
<tspan x="10" y="282">  │ │ ├── domhandler@2.3.0 </tspan>
<tspan x="10" y="298">  │ │ ├── domutils@1.5.1 </tspan>
<tspan x="10" y="314">  │ │ ├── entities@1.0.0 </tspan>
<tspan x="10" y="330">  │ │ └─┬ readable-stream@1.1.14 </tspan>
<tspan x="10" y="346">  │ │   ├── core-util-is@1.0.2 </tspan>
<tspan x="10" y="362">  │ │   ├── inherits@2.0.3 </tspan>
<tspan x="10" y="378">  │ │   ├── isarray@0.0.1 </tspan>
<tspan x="10" y="394">  │ │   └── string_decoder@0.10.31 </tspan>
<tspan x="10" y="410">  │ └── lodash@3.10.1 </tspan>
<tspan x="10" y="426">  ├── css-property@2.0.0 </tspan>
<tspan x="10" y="442">  ├─┬ css-rules@1.0.2 </tspan>
<tspan x="10" y="458">  │ └── cssom@0.3.2 </tspan>
<tspan x="10" y="474">  ├── extend@3.0.0 </tspan>
<tspan x="10" y="490">  ├─┬ extract-css@1.0.3 </tspan>
<tspan x="10" y="506">  │ ├── batch@0.5.3 </tspan>
<tspan x="10" y="522">  │ ├─┬ href-content@1.0.2 </tspan>
<tspan x="10" y="538">  │ │ └─┬ remote-content@1.0.1 </tspan>
<tspan x="10" y="554">  │ │   └─┬ superagent@1.8.5 </tspan>
<tspan x="10" y="570">  │ │     ├── component-emitter@1.2.1 </tspan>
<tspan x="10" y="586">  │ │     ├── cookiejar@2.0.6 </tspan>
<tspan x="10" y="602">  │ │     ├─┬ debug@2.6.4 </tspan>
<tspan x="10" y="618">  │ │     │ └── ms@0.7.3 </tspan>
<tspan x="10" y="634">  │ │     ├─┬ form-data@1.0.0-rc3 </tspan>
<tspan x="10" y="650">  │ │     │ ├── async@1.5.2 </tspan>
<tspan x="10" y="666">  │ │     │ ├─┬ combined-stream@1.0.5 </tspan>
<tspan x="10" y="682">  │ │     │ │ └── delayed-stream@1.0.0 </tspan>
<tspan x="10" y="698">  │ │     │ └─┬ mime-types@2.1.15 </tspan>
<tspan x="10" y="714">  │ │     │   └── mime-db@1.27.0 </tspan>
<tspan x="10" y="730">  │ │     ├── formidable@1.0.17 </tspan>
<tspan x="10" y="746">  │ │     ├── methods@1.1.2 </tspan>
<tspan x="10" y="762">  │ │     ├── mime@1.3.4 </tspan>
<tspan x="10" y="778">  │ │     ├── qs@2.3.3 </tspan>
<tspan x="10" y="794">  │ │     ├── readable-stream@1.0.27-1 </tspan>
<tspan x="10" y="810">  │ │     └── reduce-component@1.0.1 </tspan>
<tspan x="10" y="826">  │ ├── list-stylesheets@1.1.0 </tspan>
<tspan x="10" y="842">  │ └─┬ style-data@1.1.2 </tspan>
<tspan x="10" y="858">  │   └── mediaquery-text@1.0.2 </tspan>
<tspan x="10" y="874">  ├── flatten@0.0.1 </tspan>
<tspan x="10" y="890">  ├─┬ object.pick@1.2.0 </tspan>
<tspan x="10" y="906">  │ └─┬ isobject@2.1.0 </tspan>
<tspan x="10" y="922">  │   └── isarray@1.0.0 </tspan>
<tspan x="10" y="938">  └─┬ style-selector@2.0.1 </tspan>
<tspan x="10" y="954">    └── slick@1.12.2</tspan>
</text>
</svg>
